<?xml version="1.0" encoding="UTF-8" standalone="no"?>
<!-- Created with Inkscape (http://www.inkscape.org/) -->

<svg
   version="1.1"
   id="svg44"
   width="588"
   height="305"
   viewBox="0 0 588 305"
   sodipodi:docname="nuru-logo.svg"
   inkscape:version="1.2.2 (b0a8486, 2022-12-01)"
   xmlns:inkscape="http://www.inkscape.org/namespaces/inkscape"
   xmlns:sodipodi="http://sodipodi.sourceforge.net/DTD/sodipodi-0.dtd"
   xmlns="http://www.w3.org/2000/svg"
   xmlns:svg="http://www.w3.org/2000/svg">
  <defs
     id="defs48" />
  <sodipodi:namedview
     id="namedview46"
     pagecolor="#ffffff"
     bordercolor="#000000"
     borderopacity="0.25"
     inkscape:showpageshadow="2"
     inkscape:pageopacity="0.0"
     inkscape:pagecheckerboard="0"
     inkscape:deskcolor="#d1d1d1"
     showgrid="false"
     inkscape:zoom="0.77377049"
     inkscape:cx="294.01483"
     inkscape:cy="152.5"
     inkscape:window-width="1309"
     inkscape:window-height="993"
     inkscape:window-x="1403"
     inkscape:window-y="0"
     inkscape:window-maximized="0"
     inkscape:current-layer="g50" />
  <g
     inkscape:groupmode="layer"
     inkscape:label="Image"
     id="g50">
    <g
       id="g740"
       transform="translate(-8.1062002,-0.04373672)">
      <path
         style="fill:#fbf7b4"
         d="m 497,282.43992 c -15.4594,-3.33227 -29.41749,-13.72051 -35.76794,-26.6201 -6.50136,-13.20613 -6.54979,-13.65879 -6.9362,-64.81982 -0.27843,-36.86481 -0.0806,-47.01802 0.95488,-49 1.30516,-2.49824 1.31792,-2.50019 18.17149,-2.77483 14.47277,-0.23584 17.12207,-0.0426 18.67456,1.36243 1.68592,1.52573 1.82938,4.71183 2.10618,46.77483 L 494.5,232.5 l 2.37115,4.81598 c 3.46799,7.04376 8.52811,10.06432 17.62995,10.52394 10.58212,0.53438 17.10246,-3.26492 21.20117,-12.35357 1.61875,-3.58947 1.84751,-8.4952 2.29773,-49.27384 0.42832,-38.79517 0.71504,-45.42328 2,-46.23469 2.29162,-1.44708 34.32957,-1.24825 35.8,0.22218 1.96576,1.96576 1.65213,94.25633 -0.34916,102.74711 -4.86223,20.62878 -19.86987,35.12249 -40.95084,39.54849 -8.79682,1.84692 -28.81117,1.8172 -37.5,-0.0557 z M 22.315372,282.04005 c -1.201546,-0.50998 -2.664046,-1.82304 -3.25,-2.9179 C 18.342022,277.77056 18,255.67242 18,210.28825 18,151.40837 18.185458,143.18023 19.556704,141.22251 21.067368,139.06573 21.646034,139 39.122445,139 c 9.904971,0 18.777256,0.41114 19.716188,0.91364 0.938933,0.5025 11.818126,17.11183 24.175985,36.90962 12.357859,19.79779 22.810062,35.7851 23.227112,35.52735 C 106.65878,212.09285 107,196.02352 107,176.64098 c 0,-26.07632 0.31207,-35.55305 1.2,-36.44098 0.8374,-0.8374 6.23946,-1.2 17.87756,-1.2 14.32724,0 16.87096,0.23414 18.05,1.66141 1.14085,1.38106 1.31781,13.23312 1.04868,70.23642 -0.21673,45.90416 -0.67046,68.99274 -1.37245,69.83859 C 143.03042,281.66827 138.06338,282 124.88383,282 h -17.87129 l -3.06145,-4.22622 C 102.26729,275.44937 91.126968,257.37427 79.194818,237.6069 L 57.5,201.66622 57,240.29843 c -0.457455,35.34499 -0.651817,38.78407 -2.28419,40.41689 -1.520049,1.52047 -3.888769,1.81927 -16,2.01832 -7.818695,0.1285 -15.198893,-0.18361 -16.400438,-0.69359 z M 218,281.44592 c -14.31156,-3.07167 -24.03279,-8.83384 -32.2247,-19.10088 -11.90194,-14.91689 -11.94072,-15.14384 -12.29699,-71.96823 -0.21334,-34.02745 0.0213,-46.7465 0.89466,-48.5 1.16756,-2.34411 1.41591,-2.38059 18.04926,-2.65164 14.78529,-0.24094 17.09958,-0.0629 18.76398,1.44334 1.83024,1.65635 1.87347,3.28654 1.20139,45.30079 -0.78347,48.97774 -0.632,50.38325 6.18638,57.4039 9.06004,9.32883 26.71122,8.11807 34.29606,-2.35249 5.3195,-7.34336 5.48905,-9.29347 4.87162,-56.03038 -0.52667,-39.86692 -0.44515,-42.9487 1.17494,-44.41485 1.4362,-1.29974 4.62364,-1.57548 18.21214,-1.57548 11.47765,0 16.83507,0.36381 17.67126,1.2 0.89939,0.89939 1.2,13.0089 1.2,48.34004 0,43.1318 -0.16228,47.77009 -1.90852,54.55 -2.22549,8.64064 -9.59267,20.57932 -16.30684,26.42562 -5.82074,5.06835 -16.68548,10.05547 -25.99248,11.93104 -9.37354,1.88898 -24.98905,1.88861 -33.79216,-7.8e-4 z m 183.22537,0.88557 c -2.88075,-0.60416 -3.16918,-1.06051 -16.1095,-25.48736 L 374.3384,236.5 l -6.51125,-0.29209 -6.51124,-0.29209 -0.65796,15.20108 C 360.29608,259.4775 360,269.30644 360,272.95899 c 0,3.8319 -0.50759,7.1486 -1.2,7.84101 -0.83721,0.83721 -6.23222,1.2 -17.84501,1.2 -14.85543,0 -16.82295,-0.19662 -18.3,-1.82874 C 321.14911,278.50728 321,272.20698 321,210.24269 c 0,-61.36405 0.15979,-68.25962 1.61552,-69.71535 1.4415,-1.44151 5.72304,-1.58384 39.75,-1.32143 L 400.5,139.5 l 7.72998,3.6912 C 425.99822,151.67585 436,167.13752 436,186.12064 c 0,9.45649 -2.49601,17.77457 -7.67487,25.57685 C 424.93722,216.80159 416.6381,225 414.85921,225 c -1.88552,0 -0.35038,3.41112 11.701,26 6.89562,12.925 12.77929,24.65021 13.07484,26.05601 1.00634,4.78681 -1.23169,5.42814 -19.53625,5.59826 -9.12934,0.0849 -17.62239,-0.0604 -18.87343,-0.32278 z m -13.25996,-81.88928 c 6.86132,-4.02797 9.27577,-14.85347 4.78459,-21.45238 -4.49181,-6.59984 -6.64657,-7.4526 -19.82307,-7.84516 L 361,170.78935 v 15.43866 c 0,8.49126 0.3375,15.78603 0.75,16.2106 0.4125,0.42457 5.73533,0.58607 11.8285,0.35888 8.63482,-0.32195 11.80827,-0.84148 14.38691,-2.35528 z m -167.7044,-86.99943 c -10.46489,-5.21488 -17.29786,-16.365855 -18.05625,-29.466693 -0.36098,-6.235749 -0.0501,-8.464932 1.77117,-12.69849 1.21495,-2.824245 3.05893,-5.904161 4.09773,-6.844257 1.79525,-1.62468 1.93098,-1.595004 2.74285,0.599666 1.01366,2.740195 1.30732,2.340412 4.48796,-6.109749 C 218.92467,49.305258 222.85173,42 224.40184,42 c 0.75248,0 2.10527,1.125 3.0062,2.5 0.90094,1.375 2.04536,2.5 2.54316,2.5 2.17865,0 5.3188,-11.582172 5.54555,-20.454267 0.13442,-5.259421 0.66943,-9.101125 1.29657,-9.310172 1.44117,-0.480391 8.66534,6.152471 11.24234,10.322142 1.38363,2.238752 2.37654,6.245064 2.96762,11.974058 C 251.9382,48.593422 253.58926,55 254.98965,55 c 0.45901,0 1.13866,-1.8 1.51035,-4 0.38997,-2.308218 1.23481,-4 1.99751,-4 1.80112,0 8.93225,13.230638 11.04118,20.48509 2.1825,7.507547 2.24294,16.479593 0.15868,23.556535 -3.11007,10.559995 -12.68379,20.818615 -22.43072,24.035385 -2.74064,0.9045 -4.38476,0.8741 -7.45068,-0.13775 -3.08388,-1.01777 -4.63896,-1.04344 -7.196,-0.1188 -4.70349,1.7008 -6.60707,1.4886 -12.35896,-1.37768 z m -8.84506,-58.801209 c -0.94796,-2.470342 -0.0293,-5.092349 1.91536,-5.46686 1.49394,-0.287705 1.75274,0.218514 1.48852,2.911505 -0.34267,3.4925 -2.44005,5.067047 -3.40388,2.555355 z m 42.76763,-16.38302 c 0.19084,-1.65345 1.01094,-2.873161 2.06642,-3.073325 1.35905,-0.257733 1.75,0.354713 1.75,2.74145 C 258,40.366263 257.57389,41 255.93358,41 c -1.663,0 -2.00465,-0.535209 -1.75,-2.741449 z M 224.38847,29.411667 C 223.63159,26.396005 224.96431,23.5 227.10899,23.5 c 2.19558,0 1.88891,7.876723 -0.32326,8.302748 -1.1667,0.224686 -1.93243,-0.539076 -2.39726,-2.391081 z"
         id="path748" />
      <path
         style="fill:#faa22e"
         d="M 498.5,281.50066 C 476.43248,276.571 462.80729,263.74219 457.35472,242.76027 455.12213,234.16908 454.14984,146.97961 456.24225,143 c 1.3093,-2.49019 1.37714,-2.50097 17.2861,-2.74836 8.97832,-0.13962 16.62844,0.17237 17.47165,0.71252 1.28522,0.82331 1.57159,7.51697 2,46.74837 0.46104,42.21948 0.64548,46.06021 2.36697,49.28747 2.58892,4.85343 5.52748,7.89011 9.63303,9.95472 11.3864,5.726 25.01644,1.64202 30.73547,-9.20929 L 538.5,232.5 l 0.29852,-44.956 c 0.20014,-30.13993 0.65246,-45.38247 1.37245,-46.25 1.47084,-1.77226 32.86555,-1.85748 34.62903,-0.094 0.89903,0.89903 1.2,12.89779 1.2,47.84004 0,43.17348 -0.14683,47.21412 -1.97544,54.36395 -5.2745,20.62307 -19.09103,33.67806 -40.2324,38.01487 -9.3092,1.90963 -26.92712,1.95047 -35.29216,0.0818 z M 20.035184,279.06574 C 19.351316,277.78792 19,254.51842 19,210.5 19,166.48158 19.351316,143.21208 20.035184,141.93426 21.000715,140.13015 22.301042,140 39.36087,140 c 17.702214,0 18.35553,0.0724 20.312288,2.25 1.111983,1.2375 12.041438,18.33253 24.28768,37.98895 12.246241,19.65643 22.664882,35.49237 23.152532,35.19099 0.48912,-0.3023 0.88663,-16.79619 0.88663,-36.78896 0,-26.85409 0.31082,-36.5518 1.2,-37.44098 0.83077,-0.83077 6,-1.2 16.8,-1.2 10.8,0 15.96923,0.36923 16.8,1.2 0.90971,0.90971 1.2,17.58413 1.2,68.92857 0,61.38808 -0.15324,67.88182 -1.63694,69.36552 -1.41039,1.41038 -3.90379,1.59327 -18.01527,1.32142 L 107.96946,280.5 l -2.478,-3 C 104.12855,275.85 93.048003,258.075 80.868013,238 68.688022,217.925 58.109996,200.84107 57.361288,200.03571 56.211127,198.79853 56,204.56568 56,237.22061 c 0,22.69208 -0.402652,39.70824 -0.975249,41.21429 L 54.049502,281 H 37.559935 c -15.279296,0 -16.565546,-0.14197 -17.524751,-1.93426 z m 304.857966,0.93427 c -1.43885,-0.84098 -1.68389,-7.98838 -2.34366,-68.36033 -0.54015,-49.42669 -0.43552,-67.98412 0.39204,-69.53042 1.11611,-2.08548 1.53313,-2.10926 36.98832,-2.10926 32.81736,0 36.39863,0.16663 42.21481,1.96413 12.61834,3.89971 22.44154,12.37293 28.45857,24.54757 3.12233,6.31761 3.71295,8.6298 4.14646,16.2328 0.86847,15.2318 -3.61477,26.23993 -14.96733,36.75066 -3.7303,3.45368 -6.78236,6.76678 -6.78236,7.36243 0,0.59565 5.91627,12.19101 13.14727,25.76746 10.1746,19.10318 12.91998,25.04515 12.14206,26.27971 -0.85033,1.34945 -3.85067,1.63706 -19.47289,1.86666 -16.62884,0.2444 -18.62186,0.0951 -20.01602,-1.5 C 397.94884,278.29714 392.40634,268.275 386.48375,257 c -5.92259,-11.275 -11.46532,-21.0625 -12.31718,-21.75 -1.69821,-1.37056 -12.74828,-1.73582 -13.54438,-0.44771 -0.27271,0.44126 -0.81823,10.37808 -1.21226,22.08181 -0.54852,16.29274 -1.04876,21.61187 -2.1346,22.69771 -1.09845,1.09845 -4.72753,1.41133 -16.09676,1.38778 -8.07321,-0.0167 -15.40165,-0.45303 -16.28542,-0.96958 z m 63.78434,-78.59196 c 1.55238,-1.15057 3.87443,-3.62557 5.16011,-5.5 3.14716,-4.58831 2.76693,-13.84596 -0.77285,-18.81712 -3.87569,-5.44291 -8.81539,-7.04359 -21.81475,-7.06897 L 360,170 v 16.33333 c 0,8.98334 0.3375,16.67462 0.75,17.09174 0.4125,0.41713 6.22987,0.60463 12.92749,0.41667 10.46221,-0.2936 12.57506,-0.63641 15,-2.43369 z m -210.05681,46.3363 c -3.01041,-9.57085 -3.4653,-16.8643 -3.79441,-60.83707 -0.26822,-35.83662 -0.0821,-43.88758 1.04617,-45.25 C 177.03835,140.2494 179.4937,140 192.18819,140 c 8.38844,0 15.79175,0.45408 16.87755,1.03518 1.79245,0.95929 1.93426,2.2457 1.93426,17.54621 v 16.51102 l -13.43423,37.2038 c -7.38882,20.46208 -13.73697,37.99129 -14.10699,38.95379 -1.23317,3.20776 -3.16728,1.80632 -4.8381,-3.50565 z m 109.9484,1.36742 c -0.30193,-0.48852 -7.07848,-20.13909 -15.05902,-43.66794 L 259,162.66412 v -10.29687 c 0,-9.15677 0.21417,-10.4115 1.93426,-11.33207 2.80986,-1.50379 31.34021,-1.36071 32.86574,0.16482 1.49053,1.49053 1.65234,82.34081 0.18737,93.6231 -1.52394,11.73636 -3.60459,17.2233 -5.41829,14.28867 z M 221.30521,112.53235 c -12.98666,-5.64772 -21.72958,-26.060979 -16.8166,-39.263947 2.30261,-6.187947 3.18802,-7.092892 4.79268,-4.898388 1.2282,1.679661 1.3664,1.676763 2.93964,-0.06164 0.90796,-1.003291 3.04183,-5.596724 4.74193,-10.207631 C 220.0972,49.599947 222.91599,44 224.06062,44 c 0.34617,0 1.44389,0.9 2.43938,2 0.99549,1.1 2.6079,2 3.58314,2 2.84007,0 6.12375,-9.946946 6.68492,-20.25 0.26212,-4.8125 0.77784,-8.75 1.14605,-8.75 0.36821,0 2.54453,1.9125 4.83628,4.25 4.92728,5.025665 7.22925,10.895865 7.30399,18.625727 0.063,6.509545 2.82297,14.624273 4.97409,14.624273 0.86908,0 1.85079,-1.535268 2.3979,-3.75 0.5095,-2.0625 1.1845,-3.74699 1.5,-3.74331 1.17912,0.01375 7.95581,13.711064 9.60219,19.408334 2.24936,7.783873 1.64375,19.21208 -1.37808,26.005317 -4.20141,9.444969 -12.49157,17.171819 -20.55522,19.158499 -2.85479,0.70335 -2.89502,0.65577 -2.33951,-2.76741 0.69391,-4.27607 -0.5621,-6.90508 -2.41411,-5.05307 -1.94642,1.94642 -2.84034,1.47446 -2.85695,-1.50836 -0.0343,-6.154961 -3.28526,-6.79183 -4.39779,-0.86153 -0.62696,3.34199 -2.5337,5.83295 -4.23164,5.5282 -2.6209,-0.47042 -3.35926,0.2192 -2.7659,2.58333 0.74152,2.95446 -1.14987,3.26517 -6.28415,1.03235 z m -8.72226,-59.398135 c -0.43077,-0.697003 -0.51316,-1.537338 -0.18309,-1.867413 0.89497,-0.894961 1.87077,0.421303 1.38739,1.871444 -0.33872,1.016175 -0.57427,1.015386 -1.2043,-0.004 z M 255.5,38 c 0.33992,-0.55 0.81648,-1 1.05902,-1 0.24254,0 0.44098,0.45 0.44098,1 0,0.55 -0.47656,1 -1.05902,1 -0.58246,0 -0.7809,-0.45 -0.44098,-1 z m -29.94423,-8.909758 c -0.79864,-1.292232 0.47441,-4.189627 1.54901,-3.525481 1.19078,0.735937 1.1526,4.435239 -0.0458,4.435239 -0.51754,0 -1.194,-0.409391 -1.50325,-0.909758 z"
         id="path746" />
      <path
         style="fill:#f6613a"
         d="M 498.5,281.50066 C 476.43248,276.571 462.80729,263.74219 457.35472,242.76027 455.12213,234.16908 454.14984,146.97961 456.24225,143 c 1.3093,-2.49019 1.37714,-2.50097 17.2861,-2.74836 8.97832,-0.13962 16.62844,0.17237 17.47165,0.71252 1.28522,0.82331 1.57159,7.51697 2,46.74837 0.46104,42.21948 0.64548,46.06021 2.36697,49.28747 2.58892,4.85343 5.52748,7.89011 9.63303,9.95472 11.3864,5.726 25.01644,1.64202 30.73547,-9.20929 L 538.5,232.5 l 0.29852,-44.956 c 0.20014,-30.13993 0.65246,-45.38247 1.37245,-46.25 1.47084,-1.77226 32.86555,-1.85748 34.62903,-0.094 0.89903,0.89903 1.2,12.89779 1.2,47.84004 0,43.17348 -0.14683,47.21412 -1.97544,54.36395 -5.2745,20.62307 -19.09103,33.67806 -40.2324,38.01487 -9.3092,1.90963 -26.92712,1.95047 -35.29216,0.0818 z M 20.035184,279.06574 C 19.351316,277.78792 19,254.51842 19,210.5 19,166.48158 19.351316,143.21208 20.035184,141.93426 21.000715,140.13015 22.301042,140 39.36087,140 c 17.702214,0 18.35553,0.0724 20.312288,2.25 1.111983,1.2375 12.041438,18.33253 24.28768,37.98895 12.246241,19.65643 22.664882,35.49237 23.152532,35.19099 0.48912,-0.3023 0.88663,-16.79619 0.88663,-36.78896 0,-26.85409 0.31082,-36.5518 1.2,-37.44098 0.83077,-0.83077 6,-1.2 16.8,-1.2 10.8,0 15.96923,0.36923 16.8,1.2 1.35994,1.35994 1.57118,65.35756 0.29146,88.3 l -0.72514,13 -11.80196,18.75 -11.80195,18.75 h -5.18504 c -4.54764,0 -5.56587,-0.39952 -8.28299,-3.25 C 103.59051,274.9625 92.414114,257.3 80.457944,237.5 68.501774,217.7 58.107576,200.84107 57.359727,200.03571 56.211621,198.79932 56,204.58659 56,237.22061 c 0,22.69208 -0.402652,39.70824 -0.975249,41.21429 L 54.049502,281 H 37.559935 c -15.279296,0 -16.565546,-0.14197 -17.524751,-1.93426 z m 378.760146,0.20568 c -0.85438,-0.97428 -6.60148,-11.3363 -12.77134,-23.02671 -12.2118,-23.13843 -11.72606,-22.61809 -20.59026,-22.057 L 360.5,234.5 l -0.74339,10 c -0.40887,5.5 -1.01233,14.6125 -1.34103,20.25 -0.32869,5.6375 -0.89417,10.23417 -1.2566,10.21481 -0.36244,-0.0193 -7.8544,-11.15685 -16.64879,-24.75 L 324.52037,225.5 323.70529,217 c -1.40227,-14.62357 -1.96928,-72.63821 -0.73251,-74.94914 1.07533,-2.00928 1.8246,-2.05086 36.95707,-2.05086 32.81736,0 36.39863,0.16663 42.21481,1.96413 12.61834,3.89971 22.44154,12.37293 28.45857,24.54757 3.12233,6.31761 3.71295,8.6298 4.14646,16.2328 0.86847,15.2318 -3.61477,26.23993 -14.96733,36.75066 -3.7303,3.45368 -6.78236,6.76678 -6.78236,7.36243 0,0.59565 5.91627,12.19101 13.14727,25.76746 10.1746,19.10318 12.91998,25.04515 12.14206,26.27971 -0.85033,1.34945 -3.85067,1.63706 -19.47289,1.86666 -16.62728,0.24438 -18.62249,0.0949 -20.02111,-1.5 z m -10.11784,-77.86337 c 1.55238,-1.15057 3.87443,-3.62557 5.16011,-5.5 3.14716,-4.58831 2.76693,-13.84596 -0.77285,-18.81712 -3.87569,-5.44291 -8.81539,-7.04359 -21.81475,-7.06897 L 360,170 v 16.33333 c 0,8.98334 0.3375,16.67462 0.75,17.09174 0.4125,0.41713 6.22987,0.60463 12.92749,0.41667 10.46221,-0.2936 12.57506,-0.63641 15,-2.43369 z M 175.60187,177.75 c -2.40683,-36.07449 -2.23865,-37.05853 6.42243,-37.57914 7.84999,-0.47185 21.9757,0.82799 21.9757,2.02219 0,1.34447 -26.3065,43.71366 -27.17385,43.76616 -0.37062,0.0224 -0.92155,-3.67171 -1.22428,-8.20921 z M 282.3036,160.20094 c -5.60802,-8.66691 -10.46958,-16.4699 -10.80345,-17.33997 -0.46742,-1.21805 0.26783,-1.72651 3.1964,-2.21045 6.45473,-1.06663 17.81408,-0.73989 19.10345,0.54948 1.85674,1.85674 1.19591,34.84386 -0.69674,34.77948 -0.33179,-0.0113 -5.19164,-7.11163 -10.79966,-15.77854 z m -65.85763,-51.07592 c -8.84464,-5.37875 -14.86515,-21.409192 -12.38458,-32.975676 1.15505,-5.385805 4.8403,-11.320376 4.90534,-7.899344 0.0469,2.46734 2.53019,2.175091 4.24857,-0.5 0.79492,-1.2375 2.68878,-5.687688 4.20858,-9.889306 1.5198,-4.201618 3.63288,-9.069261 4.69573,-10.816984 l 1.93246,-3.177679 3.08585,2.596571 c 2.34471,1.972937 3.40571,2.331112 4.41762,1.491302 2.42236,-2.010378 5.62541,-13.727474 5.73728,-20.987584 0.067,-4.349246 0.522,-6.96632 1.2111,-6.96632 1.82955,0 7.28938,6.24746 8.95979,10.252317 0.86078,2.063774 1.958,7.463774 2.43824,12 0.48025,4.536226 1.36702,9.496715 1.97061,11.023309 2.03519,5.147432 6.07473,4.46959 6.11213,-1.025626 0.008,-1.2375 0.37061,-2.25 0.80487,-2.25 1.4816,0 8.04694,13.484149 9.73786,20 2.96663,11.43166 0.14453,24.614508 -7.13667,33.33751 -2.29942,2.75473 -8.39165,7.48221 -8.39025,6.51069 2.8e-4,-0.19151 0.98094,-2.8232 2.17925,-5.8482 4.41361,-11.141658 2.46238,-25.442531 -4.92472,-36.094073 -4.11641,-5.935491 -12.10376,-14.117452 -13.15027,-13.470673 -0.46494,0.287348 -1.05139,4.08187 -1.30323,8.432272 -0.5391,9.312543 -4.3878,18.531211 -8.52324,20.415446 -2.29512,1.045724 -2.81066,0.786669 -6.14185,-3.086196 -2.00004,-2.325258 -3.94167,-4.220774 -4.31472,-4.212259 -1.42827,0.0326 -3.04206,10.98105 -2.67883,18.174013 0.31257,6.18982 0.87809,8.27478 3.19338,11.77343 1.54745,2.33835 2.6465,4.4186 2.44233,4.62277 -0.20417,0.20418 -1.70386,-0.4392 -3.33263,-1.42971 z m 9.63298,-81.708353 c 0.048,-1.164943 0.28494,-1.4019 0.60416,-0.604167 0.28887,0.721875 0.25335,1.584375 -0.0789,1.916667 -0.3323,0.332291 -0.56864,-0.258334 -0.52522,-1.3125 z"
         id="path744" />
      <path
         style="fill:#060607"
         d="m 505.19286,281.98203 c -24.94862,-3.45456 -40.25211,-15.88497 -46.9222,-38.11299 -1.35609,-4.51919 -1.67414,-12.90514 -2.0093,-52.97919 -0.36067,-43.12347 -0.24366,-47.76469 1.24165,-49.25 C 458.87444,140.26841 461.5551,140 473.8803,140 c 10.24154,0 15.2418,0.38133 16.39071,1.25 1.48694,1.12425 1.68222,5.77715 1.94113,46.25 0.31676,49.51743 0.17168,48.31181 6.70936,55.75782 4.34801,4.9521 10.33374,7.08627 18.42922,6.57079 9.16777,-0.58376 15.09197,-4.38857 19.13396,-12.28875 l 3.01532,-5.89352 0.29459,-44.57317 c 0.26433,-39.99405 0.46375,-44.70159 1.94113,-45.82317 1.13947,-0.86505 6.05313,-1.25 15.95541,-1.25 13.15301,0 14.47667,0.1678 16.38616,2.07729 2.05558,2.05558 2.07311,2.56531 1.67647,48.75 -0.34497,40.16884 -0.63868,47.50881 -2.10774,52.67271 -5.51624,19.39017 -18.6989,32.28671 -37.64602,36.82893 -8.33481,1.99812 -22.73496,2.77083 -30.80714,1.6531 z M 21.75,279.9199 C 20.110318,278.96487 20,274.58779 20,210.48549 20,143.86892 20.050849,142.04315 21.934259,141.03518 23.03655,140.44526 30.754757,140 39.878495,140 c 15.193286,0 16.137893,0.11478 18.517559,2.25 1.379171,1.2375 12.595637,18.43046 24.925481,38.20657 12.329844,19.77612 22.926525,36.12612 23.548185,36.33334 0.82664,0.27554 1.13028,-9.45092 1.13028,-36.20658 0,-35.25 0.0729,-36.65622 2,-38.58333 1.80645,-1.80645 3.33333,-2 15.77749,-2 10.85124,0 14.24954,0.33063 16,1.5567 L 144,143.11341 v 36.75116 36.75116 l -19.25,28.38332 c -10.5875,15.61082 -19.74296,28.5366 -20.34547,28.72395 -0.60251,0.18736 -10.68942,-15.53617 -22.415355,-34.94118 C 58.495126,199.90201 57.279847,198 55.931906,198 55.371385,198 55,214.12611 55,238.46482 c 0,38.98292 -0.07084,40.50272 -1.934259,41.5 -2.495917,1.33577 -29.010533,1.29774 -31.315741,-0.0449 z m 377.87995,-0.7763 c -0.92401,-1.02103 -6.78484,-11.48353 -13.02407,-23.25 L 375.26183,234.5 H 367.38091 359.5 l -0.5,8.76042 c -0.275,4.81823 -0.87054,8.77941 -1.32343,8.80262 -0.45289,0.0232 -8.44039,-10.58683 -17.75,-23.57787 L 323,204.8651 v -31.39737 c 0,-30.77399 0.0413,-31.41946 2.07949,-32.51027 1.4524,-0.7773 12.68564,-1.00298 37.25,-0.74835 34.13331,0.35381 35.34745,0.43401 41.17051,2.71974 17.10358,6.71368 27.7729,19.50018 30.49628,36.54786 2.36463,14.80203 -2.68436,28.29887 -14.82906,39.64068 l -7.5046,7.00847 2.26065,4.65312 c 1.24337,2.55921 7.16928,13.82146 13.1687,25.02722 C 433.09138,267.01197 438,276.72475 438,277.39016 438,280.54697 435.54715,281 418.45499,281 c -15.43296,0 -17.31278,-0.18538 -18.82504,-1.8564 z M 389.01017,201.75 c 4.95924,-3.37523 7.21584,-7.04674 7.7504,-12.60997 0.639,-6.65024 -2.48168,-13.26533 -7.97197,-16.89862 -3.74471,-2.47814 -4.68481,-2.62988 -16.62885,-2.68402 L 359.5,169.5 l -0.27646,15.95986 c -0.15205,8.77792 -0.0537,16.54042 0.21862,17.25 0.36882,0.96114 3.78047,1.29014 13.37857,1.29014 11.71447,0 13.18348,-0.20416 16.18944,-2.25 z M 175,155.57143 C 175,140.06282 175.04514,140 186.18806,140 c 7.28625,0 8.00033,0.17161 7.56949,1.81914 C 193.04684,144.53687 177.11495,168 175.98025,168 175.3925,168 175,163.02358 175,155.57143 Z m 110.54512,-3.10562 c -4.18301,-5.80753 -7.34033,-10.98815 -7.01628,-11.51248 C 278.8529,140.429 281.79148,140 285.05902,140 293.83098,140 295,141.5218 295,152.94098 c 0,4.91754 -0.41612,9.19816 -0.92471,9.51249 -0.50859,0.31432 -4.34717,-4.18012 -8.53017,-9.98766 z"
         id="path742" />
    </g>
  </g>
</svg>
